<svg width="40" height="41" viewBox="0 0 40 41" fill="none" xmlns="http://www.w3.org/2000/svg">
<g filter="url(#filter0_d_122_31)">
<path fill-rule="evenodd" clip-rule="evenodd" d="M7.68449 23.6579L15.7898 32.4295L8.26344 34.1842L4.21081 30.6758L7.68449 23.6579ZM29.0761 6.81579L32.6319 8.77053L31.4466 15.2368L23.1497 9.82316L29.0761 6.81579ZM6.97396 6.81579C7.3687 6.81579 7.68554 6.83263 8.15817 7.21053C8.81607 7.73684 11.2424 9.45474 11.2424 9.45474L11.6824 10.2368C12.4834 10.2768 12.5034 10.3495 13.515 11.0926L35.7897 26.2021C35.6182 26.5737 32.9697 34.1842 32.9697 34.1842H28.8813L4.21081 8.13158C4.21081 8.13158 4.61291 7.98105 5.00028 7.73684C5.60765 7.35474 6.37186 6.81579 6.97396 6.81579ZM10.0003 1.55263H1.05291C0.497122 1.83053 0.0002799 2.15263 0.0002799 3.26316V10.5V12.7368L1.04028 15.6295L0.0002799 17.0789V18.2632L1.05291 19.0526V20.5L0.0002799 21.5526V25.5L1.05291 26.1579V30.5C-0.0460359 31.2821 0.0002799 32.2105 0.0002799 33.2779V38.2632C2.46238 38.8779 2.05396 39.4474 4.8687 39.4474C7.35607 39.4474 8.94765 39.4474 8.94765 39.4474C9.3287 39.4232 9.62554 39.3432 10.0003 39.3074C11.0466 39.2063 11.7108 38.3947 11.7108 38.3947L14.474 39.4474L15.5266 38.3947C15.5266 38.3947 16.9066 40.1032 17.2371 40.5L18.1582 39.4474L21.0529 40.5C21.0529 40.5 22.1266 39.4695 23.2897 39.4474H28.9476C29.034 39.3642 30.0003 38.3947 30.0003 38.3947C30.4434 38.66 30.0519 39.4474 34.0792 39.4474C35.1908 39.4474 36.1845 39.1842 36.1845 39.1842C36.014 38.6158 35.995 38.7316 35.6582 38.3947C35.6582 38.3947 38.2897 38.3947 40.0003 39.4474V23.1389L37.895 23.7895C37.9361 23.4558 38.9087 23.0126 38.9476 22.3421C38.9971 21.4968 38.9013 18.5674 38.7782 17.9484C38.715 17.6326 38.1119 16.7074 37.895 16.4211C38.1529 15.7253 38.9476 15.2368 38.9476 15.2368V14.4474L40.0003 13.8337V9.38947L38.9476 4.97368L40.0003 3.83368V2.57474L38.8887 1.61158L35.2782 1.01474L34.4445 1.61158L34.0276 0.916842C34.0276 0.916842 28.5708 0.502105 27.5813 0.502105C26.315 0.502105 26.4992 0.596842 26.0708 2.02316L24.254 2.20842L24.0792 1.55263H22.2371L22.5403 1.21895C22.8624 0.914737 22.7497 1.03684 23.0013 0.5H16.6666C16.5676 0.681053 16.2055 1.09158 15.9203 1.55263C15.9203 1.55263 15.3645 1.54737 14.9476 1.82526C14.5308 2.10316 14.5329 2.60526 13.9771 2.60526C13.4213 2.60526 12.2687 2.60526 11.6161 2.60526C10.2266 2.60526 10.0003 1.55263 10.0003 1.55263Z" fill="#F44336"/>
</g>
<defs>
<filter id="filter0_d_122_31" x="-4" y="0.5" width="48.0003" height="48" filterUnits="userSpaceOnUse" color-interpolation-filters="sRGB">
<feFlood flood-opacity="0" result="BackgroundImageFix"/>
<feColorMatrix in="SourceAlpha" type="matrix" values="0 0 0 0 0 0 0 0 0 0 0 0 0 0 0 0 0 0 127 0" result="hardAlpha"/>
<feOffset dy="4"/>
<feGaussianBlur stdDeviation="2"/>
<feComposite in2="hardAlpha" operator="out"/>
<feColorMatrix type="matrix" values="0 0 0 0 0 0 0 0 0 0 0 0 0 0 0 0 0 0 0.25 0"/>
<feBlend mode="normal" in2="BackgroundImageFix" result="effect1_dropShadow_122_31"/>
<feBlend mode="normal" in="SourceGraphic" in2="effect1_dropShadow_122_31" result="shape"/>
</filter>
</defs>
</svg>
